<?xml version="1.0" encoding="UTF-8"?>
<svg id="Layer_1" data-name="Layer 1" xmlns="http://www.w3.org/2000/svg" viewBox="0 0 1024 1024">
  <path d="M370.418,401.582c4.693,4.734,9.622,9.568,13.575,14.924.211.677-.954.726-1.48.486-1.696-.774-7.726-6.588-10.591-8.414-25.007-15.941-63.757-27.611-93.421-27.66-4.716-.008-11.068,1.249-13.371,5.727-5.048,9.816,14.37,13.821,16.861,19.868.735,1.785-1.124,1.561-1.99,1.943-6.818,3.003-13.33,2.02-14.065,12.056-1.132,15.472,22.855,24.508,31.957,34.094.908.957,5.24,5.491,1.588,5.431-6.147-.102-21.813-4.771-25.943-.005-5.251,6.06,4.409,19.23,8.516,24.175,3.775,4.543,18.828,15.768,19.937,18.306.551,1.261-.105,1.729-1.423,1.429-11.358-2.587-30.51-16.907-38.595-25.416-24.415-25.697-45.041-82.771-46.011-117.98-.993-36.028,30.832-24.755,54.036-18.045,41.183,11.91,70.309,28.708,100.419,59.081Z"/>
  <path d="M475.794,93.569c100.327-5.667,208.831,23.314,286.664,87.748,1.542,1.277,6.495,4.81,7.035,5.969,2.252,4.833-2.646,9.713-7.447,7.451-144.555-123.315-375.22-121.504-517.688,4.412-6.12,3.237-9.733-2.674-5.819-7.838,64.592-55.863,151.347-92.89,237.254-97.742Z"/>
  <path d="M689.691,258.564c3.935,4.833-1.557,10.328-6.981,8.514-35.289-30.632-79.496-51.062-125.526-59.486-71.358-13.059-147.057,2.449-206.5,43.868-4.012,2.796-20.44,17.038-22.407,17.621-7.595,2.248-10.818-3.734-4.766-9.793,6.699-6.706,21.231-16.183,29.567-21.434,99.561-62.711,226.151-60.42,321.643,9.2,3.188,2.325,13.036,9.135,14.97,11.51Z"/>
  <path d="M497.995,531.995c-2.845.517-1.636-.7-2.246-2.196-3.507-8.608-11.895-25.811-21.083-28.989-1.504-.52-1.197-1.186-2.66.705,15.448,18.604,22.022,43.971,8.797,65.787s-45.29,25.254-67.043,15.439c-3.614-1.631-5.387-5.267-9.253-5.747-.535,5.857,8.306,10.399,12.489,13.511-12.616.598-23.38-15.997-27.477-26.523-24.58-63.147,64.094-107.075,101.89-48.89,3.25,5.004,6.978,10.625,6.586,16.904ZM411.01,515c4.043-1.652,8.41-4.982,12.724-5.766,12.475-2.266,25.446-3.337,37.49,1.042,3.747,1.362,6.824,3.826,10.283,5.699l1.487-2.459c-14.141-14.488-34.916-17.909-52.661-7.682-1.232.71-11.122,7.354-9.324,9.166ZM433.006,524.97c2.351-6.944,10.167-14.575-2.684-14.607-25.137-.063-31.662,33.102-19.758,50.574,14.27,20.945,46.059,21.638,61.948,2.075,13.356-16.444,11.36-39.344-8.502-49.012l7.718,15.774c8.876,35.666-42.24,50.099-52.218,19.216-3.344-10.349-1.766-27.382,12.484-23.979l-5.021,2.524c1.696,6.736,7.508,6.612,9.047-.091l-3.014-2.474ZM408.995,516.005c-1.689-1.85-6.045,7.026-6.482,8.008-14.537,32.731,11.601,64.824,46.748,59.748,6.489-.937,21.215-6.98,23.525-13.477,2.146-6.037-7.732,3.413-8.874,4.128-32.349,20.231-72.41-9.072-60.189-46.189,1.513-4.596,4.828-7.528,5.272-12.218Z"/>
  <path d="M500.737,456.236c6.657-1.208,26.834.09,28.201,8.326,1.115,6.715,2.501,15.8-3.421,20.455-3.239,2.546-15.471,3.139-20.063,3.02-4.07-.105-23.729-2.218-25.572-4.492-.426-5.5,5.379-12.207,8.722-16.442,3.156-3.999,6.907-9.919,12.134-10.867Z"/>
  <path d="M524.607,695.573c15.746,6.173,23.619,16.765,23.619,31.771,0,10.893-5.824,24.69-17.469,41.394-12.959,18.64-26.164,27.958-39.611,27.958-2.625,0-5.536-.937-8.734-2.814-3.198-1.875-6.358-3.722-9.472-5.537v30.863c0,1.574.408,3.39,1.23,5.446,1.146,2.905,1.883,4.902,2.214,5.991.327,1.09-.288,3.056-1.845,5.9-1.561,2.843-3.813,4.386-6.766,4.63-2.953.241-9.35-1.271-19.191-4.539-10.333-3.39-16.73-6.414-19.19-9.077-1.476-1.693-1.476-4.235,0-7.625,1.146-2.542,1.722-4.539,1.722-5.991v-112.196c0-.727-.577-2.057-1.722-3.994-1.149-1.935-1.642-3.328-1.476-4.176.984-5.81,3.937-8.715,8.857-8.715.819,0,4.14.698,9.964,2.088,5.82,1.393,10.457,2.15,13.901,2.27,4.921.122,11.195-.846,18.822-2.904,7.627-2.057,13.163-3.087,16.607-3.087,1.968,0,3.937.182,5.905.545,3.771.727,7.708,2.542,11.81,5.446,4.92,3.39,8.526,5.509,10.825,6.354ZM504.187,709.552c-3.775,0-9.023,1.516-15.747,4.539-6.727,3.026-11.894,6.354-15.5,9.985v43.753c8.857-2.057,17.223-9.5,25.096-22.33,7.215-11.619,10.825-21.482,10.825-29.593,0-4.235-1.561-6.354-4.674-6.354Z"/>
  <path d="M806.043,332.457c-25.71-7.019-91.252,10.137-115.727,22.359-24.79,12.379-43.259,34.457-60.816,55.164-3.837-1.963,1.339-6.624.449-7.899-2.143-3.072-24.114-7.019-24.855-8.181-2.663-4.177,3.141-1.36,4.901-3.395-1.001-1.738-5.842-3.505-7.495-3.505h-15c-4.032-3.697,1-1.722.495-4.995l-10.049-.46-1.598-4.585-35.345-3.971,1.909-6.904c-5.387-2.876-9.544.896-14.912.905l2.995-5.984c-1.638-1.463-11.18,3.681-12.495,5.975l-1.367-1.614c-1.08-60.587-1.511,19.709-1.141-40.877.56-3.138,6.418-4.233,8.943-6.055,6.049-4.363,8.748-11.926,11.638-18.449,16.397,3.104,32.472,7.928,47.303,15.638,5.258,2.734,21.399,12.628,24.879,13.209,4.924.822,7.207.871,5.822-3.925-.492-1.704-7.254-7.37-9.268-8.717-20.277-13.562-44.642-22.076-68.654-26.103-6.347-20.034-30.31-27.741-46.58-13.513-4.559,3.987-5.492,8.541-8.768,13.232-21.165,3.052-41.705,10.303-60.328,20.672-3.847,2.142-33.19,18.111-18.003,22.119,3.457.912,13.924-8.154,17.717-10.406,11.999-7.123,25.879-13.793,39.31-17.69,3.896-1.13,17.371-4.766,20.516-4.534,2.828.208,3.354,7.052,4.93,10.085,3.268,6.291,10.412,11.721,17.43,13.059l1.162,28.436c-.244,1.733-9,15.319-10.045,15.963-3.099,1.908-18.786-4.442-18.016,2.932.245,2.343,3.881,4.519,3.015,7.553-1.005,1.046-27.375-6.028-25.029,4.967-4.89-2.119-7.777,3.462-9.578,3.807-1.846.354-5.716-1.75-8.769-.644l-1.66,3.844c-10.509-3.183-18.628-3.933-16.968,10.03-6.173-3.449-21.704-4.406-13.992,5.988-6.706,3.618-9.417-4.652-13.484-9.002-24.059-25.733-50.474-42.605-83.743-54.257-20.037-7.018-70.84-22.06-89.451-12.908-12.25,6.024-10.788,20.738-10.31,32.669,1.181,29.507,10.185,63.383,23.132,89.868,18.144,37.116,51.42,69.21,92.778,77.719,1.44,5.792-8.103,8.418-4.764,13.784l7.908,1.738-9.923,25.141c3.409,11.434,10.652-2.708,13.853-7.246-1.225-1.762-5.566,2.499-5.006-.995.683-4.261,9.857-15.819,8.976-19.935l-2.416-1.571c-3.026,1.136-5.682,3.235-8.559.424l6.987-16.924c-12.536-4.944-26.188-7.713-38.354-13.615-52.665-25.549-78.028-89.901-81.617-145.384-1.883-29.114.721-37.509,32.543-35.542,52.29,3.232,112.581,36.263,144.866,77.134,2.136,2.704,5.265,10.522,8.118,10.977l9.3-3.299c-.475-6.037,5.955.646,9.735-2.699l.299-3.95c-1.957-.236-12.458-5.567-9.862-8.112,8.047-1.085,14.968,3.989,22.991,3.99,1.121-4.805-8.814-7.632-6.542-11.994,2.819-5.411,12.756,3.238,17.542,1.994l-1.886-3.635c1.315-6.542,12.399,4.081,13.886,2.635l-2.013-5.483c-.174-1.763-.049-1.557,1.533-1.546,6.362.046,12.036,4.408,18.48,4.029,1.145-4.871-13.012-7.191-10.99-9.985,9.06-3.299,18.326,2.284,27.032,1.522,3.527-2.224-6.92-8.792-5.032-12.527,3.63-.448,6.842,1.845,9.496,3.994,1.895,1.534,1.811,4.92,5.485,3.998,2.073-7.767,4.997-17.595,13.009-20.992-2.43,7.77-6.463,23.21,2.654,27.87,8.931,4.565,12.25-11.065,17.834-9.874,3.683.786-2.606,5.933-1.478,6.994,3.808-.171,6.824-3.271,10.557-3.941,1.458-.262,2.854-.63,2.429,1.433-2.308,2.116-17.579,8.688-13.995,12.509,10.746-.965,21.073-4.119,32.006-2.991,1.428,4.064-4.292,5.573-2.493,9.005,5.772-1.537,8.927-8.29,15.486-7.004l-4.99,13.989c7.534,2.685,13.022-9.692,18.922-4.367,1.28,4.431-9.997,17.374-8.922,18.367l18.971-5.981c2.891,6.007-5.47,8.081-8.956,11.486,1.715,3.728,9.32-1.096,9.975,2.015.505,2.397-4.718,2.55-3.99,5.48,1.107.936,25.475-2.694,28.509,2.001.728,2.001-1.932,1.795-2.996,2.023-5.133,1.098-10.327,2.267-15.523,2.988l.004,2.978,11.999,4.027c2.986,4.005-11.898,2.88-13.415,3.071-3.137.396-6.715,2.24-10.191,2.809-3.208.526-11.306-1.361-12.3,2.806l1.928,4.814-1.588,2.445c-1.799.385-10.646-5.999-8.625-.291.821,2.319,8.022,10.175,3.675,11.332-1.4.372-12.885-8.598-15.811-10.171-1.498-.805-8.622-4.784-9.669-3.821.322,2.108,3.482,19.048.497,18.973-6.571-7.423-5.311-18.643-14.792-24.187-5.41-3.164-24.023-7.302-30.2-6.776-8.583.73-16.393,6.877-21.483,13.509-3.135,4.084-9.066,19.34-12.751,20.331-2.487.669-17.366-5.797-22.779-5.849-29.896-.289-61.081,20.718-69.21,49.778-14.662,52.418,28.625,100.191,81.705,81.216-8.977,39.623,29.208,72.543,66.686,54.176,18.508-9.07,28.922-32.15,25.33-52.171,4.553.381,6.963,7.544,7.029,11.544.129,7.84-8.114,25.606-13.056,31.929-2.605,3.332-15.662,12.862-9.568,17.613,6.577,5.128,31.372-5.129,33.584-3.086,1.686,4.241-19.809,15.587-16.995,17.995h21.5c.41,0,3.12,2.805,2.495,3.995-.717.666-15.431,1.506-18.264,2.236-1.756.453-4.112,1.491-3.725,3.752,9.192,4.58,18.482,11.569,24.965,19.547,1.694,2.084,4.284,4.726,4.024,7.466-1.463,1.422-20.904-8.033-25.463-8.04-1.509-.002-2.947-.624-2.523,1.531,7.249,8.738,18.975,15.398,26.015,23.99,1.771,2.161,4.249,4.492,3.971,7.519-9.008-.114-15.041-9.363-24.989-8.99-1.849,1.945,9.371,22.959,9.778,27.726.264,3.095-1.687,7.678-.789,11.271-6.643.609-10.388-7.052-16.99-6.997l10.598,19.957c1.797,10.047-14.57-8.028-15.603-8.473l-1.999,1.026c1.776,9.445,8.365,17.648,7.994,27.48-7.51-1.159-8.314-13.225-16.957-12.971-4.185,3.01,8.145,25.045,4.49,31.007-1.195,1.949-4.442-.294-5.858-1.202-2.421-1.554-9.472-10.182-11.154-9.824-3.522,3.307.651,8.639-.521,12.998-4.388,4.247-11.142-15.77-16.984-13.999-2.044,1.389.037,25.096-3.523,28.985-.866.946-1.291,1.568-2.512.549l-5.472-9.534c-2.88,1.259-1.161,20.92-6.867,19.917-3.542-.623-5.206-9.435-6.56-12.318-.125-.978-2.033-.803-2.55-.576-3.325,1.461-5.457,24.122-10.146,24.92-5.541-1.904-5.891-8.477-9.896-11.943-3.81-.787-1.514,12.099-6.511,9.536-3.906-2.004-5.323-12.433-9.475-15.52-2.275-.098-1.366,9.109-1.506,10.975l-5.99-3.99-.011,11.99c-6.016.95-7.576-13.455-12.463-11.985-2.785.837-1.083,10.469-1.536,12.986-4.545,1.75-8.65-9.953-10.495-9.975-3.674,2.477,1.393,14.208-4.968,13.024-2.321-.432-7.769-18.35-9.047-19.035-1.751-.938-1.531,1.343-1.778,2.258-.859,3.182.538,16.583-4.457,7.983-2.418-4.164-3.587-10.635-5.264-15.247-4.345-1.286-4.273,5.93-8.287,4.885-4.179-1.846-7.149-12.275-11.189-12.902-2.777-.431-.9,5.284-2.446,7.427-.06,1.016-1.89.759-2.483.511-3.662-1.537-7.088-20.335-12.883-18.812-1.976.519-2.988,4.325-5.687,3.885-2.967-9.614,1.223-19.299.984-28.99-2.669-.508-1.736.577-2.44,2.004-1.857,3.769-5.057,16.666-6.087,17.959-4.464,5.606-3.571-11.723-3.458-13.457.64-9.778,3.637-19.617,2.985-29.505-2.841-.534-1.614.739-2.265,2.18-2.047,4.532-1.441,9.571-5.23,12.795-4.809-3.991-3.313-10.576-3.505-15.976-4.608-1.096-4.176,4.907-7.99,4.991-1.078-10.955,4.221-20.888,5.99-31.46l-2.034-1.105-7.46,5.551c-2.883.022.384-9.14,1.02-10.961,2.092-5.988,8.462-17.119,9.43-22.579.258-1.456.625-2.859-1.436-2.433l-5.024,5.998c-2.172.731-1.709-2.248-1.431-3.443.899-3.866,11.7-19.724,9.936-21.558-4.469-.512-8.242,5.721-11.511,6.983-4.624,1.785,2.576-9.138,3.106-9.9,1.854-2.667,12.111-13.366,12.396-14.619,1.3-5.712-8.72,2.884-9.98,1.525-4.155-8.849,18.465-17.78,19.001-19.506.716-2.306-1.17-1.182-2.199-1.223-2.327-.092-9.276,1.651-9.803-.782-.58-2.679,14.802-11.697,8.414-16.384-3.192.306-8.618,4.202-9.443-.622-.139-.813.204-9.368.424-10.49,1.227-6.23,7.594-10.448,7.591-16.988-3.348.596-6.823,6.636-9.659,6.892-2.177.196-3.454-3.438-3.174-5.17,1.005-6.206,21.359-21.911,20.844-24.193-4.846-5.305-11.488-.486-16.996.467-2.745-2.966,16.345-14.509-3.001-10.001-1.193-2.631,6.362-10.734,4.99-11.989-.892-.816-2.357-.194-3.263,1.249-1.262,2.012-6.23,12.211-4.737,13.745l5.999.006-4.986,9.52,4.897,5.816c-6,6.039-10.989,22.263,1.091,23.671.087,1.858-1.56,2.721-1.932,4.553-.959,4.727-2.247,17.87-1.238,22.108.431,1.81,1.661,3.108,2.176,4.851.04,2.532-6.258,5.352-6.956,10.041-.484,3.247.765,5.421.751,7.936-.015,2.616-1.585,5.859-.818,8.8.302,1.158,2.911,1.333,3.001,2.187.224,2.124-15.955,16.479-9.374,21.461l4.36-1.52,2.009,1.064c-1.358,3.188-4.498,10.145-4.761,13.237-.301,3.533,1.999,10.252,1.58,13.54-.49,3.839-9.257,19.878-2.1,21.633l5.299-1.899c-1.704,10.541-5.664,19.672-3.124,30.549,1.32,5.651,4.168,13.533,11.122,10.445.094,4.98.387,6.611,4.913,8.564-2.093,6.926.242,19.156,3.647,25.378,2.069,3.78,5.161.484,6.485,1.474.69,4.033,6.784,19.767,11.48,19.352,1.045-.092,2.892-3.92,5.473-2.768l1.873,7.851c-8.416,6.163-16.652,16.305-19.929,26.585-7.556,23.706,13.988,25.902,31.241,29.893,16.24,3.756,30.976,8.947,48.364,7.711,12.777-.908,30.342-4.853,42.142-9.858,3.512-1.49,12.892-7.629,15.052-8.025,4.119-.756,22.05,3.966,28.763,3.932,4.972-.026,28.211-5.223,29.786-4.172,1.494.997.608,3.206,4.097,3.085,5.6-.194,10.939-8.12,12.135-7.965,3.922,7.352,5.348,2.225,9.406,1.431,2.239-.438,8.189,5.721,10.771,7.344,21.276,13.378,47.882,23.31,72.224,12.605,9.477-4.168,7.765-2.315,17.464-3.536,8.217-1.034,29.386-7.099,33.487-14.514,9.385-16.971-16.827-34.222-24.876-46.847,3.675-6.345,8.635-12.018,10.025-19.515l4.473,2.994c8.658-11.562,11.092-25.906,12.52-39.993,11.585,6.252,4.407-9.356,4.998-9.998l3.494,1.978c5.792-12.408-.13-25.565-3.49-37.983l5.489,5.98c6.331-4.311-5.703-29.641-4.494-30.975l7.501,4.97c4.754-.262-2.513-20.821-3.483-23.498-1.668-4.603-5.833-10.892-7.008-14.997-1.298-4.538,8.019,2.322,8.654,2.375,8.695.735-4.733-16.325-4.645-17.362l3.875-1.586c2.483-2.843-9.559-15.049-10.649-18.657-.988-3.271-.788-8.785-1.541-12.459-1.65-8.05-4.602-17.522-5.714-25.296-.086-.598-.278-1.638.5-1.49l5.002,4.039c5.781.079.446-12.293.595-14.588.094-1.44,1.667-2.527,1.862-4.002.97-7.354-1.703-13.195-3.794-19.994l3.907-2.072-2.065-17.874c1.407-3.661,5.785,4.625,6.989-.06.806-3.137-8.438-15.987-6.989-17.449.482-.486,5.765,1.154,2.98-6.448-1.49-4.069-5.863-4.856-5.979-9.034.315-1.174,13.027-3.447,15.761-4.259,71.265-21.159,104.346-83.381,113.093-153.907,1.852-14.93,5.684-37.85-12.814-42.901ZM380.112,911.388c-.518-.744-2.705-6.178-2.877-7.123-.861-4.726,1.802-16.086-7.212-9.739-5.976,4.208-2.915,12.573-4.96,14.054-10.022-1.033-26.873-2.823-26.885-16.08-.009-10.249,16.33-33.128,27.173-35.421,5.1,7.34,8.02,14.078,15.321,19.75,12.113,9.41,25.642,14.773,34.843,29.157l7.481,10.008c-9.019.841-37.309,3.391-42.883-4.606ZM473.586,639.914c-1.705-2.252-9.818-15.835-4.086-15.895.807-.008,7.059,9.762,8.53,11.452,20.131,23.139,44.404,16.948,59.953-6.993l3.018,1.051c-10.9,27.276-48.682,35.131-67.414,10.385ZM479.049,626.485c1.541-2.252,3.89-1.519,6.193-1.235,13.91,1.718,27.391,10.355,41.757,10.76-13.552,19.017-41.439,12.163-47.95-9.525ZM542.015,619.49c-9.173.756-18.195-2.095-27.456-2.519-15.592-.714-29.223,1.232-44.208,1.976-1.129.056-2.163.208-2.903-.892-2.017-33.859,39.253-55.889,64.073-29.076.674.728,6.464,8.195,2.979,8.001-.907-.051-6.535-7.817-8.587-9.393-1.368-1.05-9.182-5.309-9.907-4.582.867,4.323,4.716,7.469,5.575,11.953,1.212,6.325-2.704,12.355-8.573,14.549-2.328.87-6.652.277-8,2.48l37.987,5.018-.98,2.484ZM562.834,524.821c-7.249-.202-9.862-1.553-14.287,5.225-8.43,12.913,2.848,32.338,17.017,35.89,27.985,7.015,44.54-23.897,29.679-45.68-2.466-3.615-6.366-4.416-7.234-8.256,29.372,11.09,28.928,48.387,1.196,61.706-19.409,9.322-44.108,4.837-53.387-16.024-7.793-17.52-.319-44.26,21.638-44.73,11.06-.237,8.681,3.435,5.377,11.87ZM565.912,529.354c-2.383,4.415-8.708,5.803-7.792-.705.38-1.152,2.485-2.353,3.62-2.508,2.09-.286,3.992,1.098,4.172,3.213ZM594.673,511.827c-4.08-1.858-23.385-3.436-28.203-2.849-3.322.405-5.781,2.484-9.058,2.934-6.904.949-9.638-1.925-15.932,3.068-14.558,11.549-15.066,38.667-3.504,52.544,16.438,19.73,44.785,15.362,63.515,1.467,1.116,2.621-4.655,6.165-6.578,7.422-23.067,15.081-58.193,7.657-66.631-20.195-13.814-45.599,50.038-79.403,76.718-38.227-1.196,1.117-8.439-5.303-10.327-6.163ZM567.462,603.039c-4.042-.278-18.03-2.752-20.505-5.495-2.413-2.673-4.604-10.259-6.956-13.534,16.913,5.802,30.896,8.663,47.981,1.471,29.757-12.527,36.699-46.53,19.856-72.818-1.54-2.403-7.113-7.54-7.829-9.176-1.6-3.654,8.502,2.155,9.326,2.679,1.782,1.132,2.827,2.955,4.655,3.834-3.893-9.289-18.228-16.505-27.545-18.944-49.758-13.026-85.475,35.634-62.445,79.935-8.619-1.387-15.278-4.12-24.415-2.905-10.831,1.44-23.652,13.353-30.561,21.44-1.632,1.91-3.914,7.181-5.059,7.941-7.294,4.84-25.588,9.158-34.337,8.403-57.934-4.997-69.744-82.432-25.106-114.846,19.2-13.942,43.597-14.478,65.425-7.064.079-1.234.342-2.411.987-3.488,3.392-5.659,8.206-13.918,12.085-18.948,3.157-4.094,9.514-10.25,14.705-11.295,5.888-1.185,22.324,2.051,28.254,4.293,5.956,2.253,6.061,4.067,6.898,10.102.378,2.722,1.248,12.154.677,14.391-.692,2.713-5.711,8.366-8.046,9.994-9.588,6.685-34.295,2.517-45.507,1.001,4.197,3.529,13.54,6.626,18.943,7.546,9.219,1.571,27.323,0,34.097-7.014,1.676-1.736,4.182-6.906,5.62-7.38,1.845-.608,4.445.127,6.605-.395,18.753-4.53,35.542-7.556,53.772,1.695,60.541,30.722,34.264,123.098-31.577,118.577ZM569.229,856.024c-1.599.673-3.292,1.423-5.08,2.251l-1.541-.024c-.561-.009-1.403.19-2.531.601-1.128.408-1.972.61-2.532.602l-4.202-.066c-.466-.008-1.279-.235-2.441-.68-1.159-.445-2.066-.673-2.722-.684-.28-.004-.724.065-1.335.213-.608.145-1.241.289-1.897.436-.75.221-1.5.402-2.251.547-1.121-.018-2.118-.324-2.998-.921-.878-.596-1.915-1.41-3.114-2.438-.747-.012-1.699-.3-2.858-.861-1.159-.562-2.015-1.159-2.565-1.788.003-.157-.062-.508-.193-1.052-.132-.547-.262-1.169-.391-1.87-.13-.701-.234-1.384-.317-2.045-.082-.662-.122-1.149-.118-1.459.018-1.088.454-2.13,1.311-3.125.856-.997,1.899-1.894,3.125-2.689,1.228-.797,2.498-1.417,3.812-1.863,1.316-.445,2.487-.66,3.514-.645,1.028.017,2.167.268,3.421.754,1.253.486,2.575,1.049,3.967,1.694,1.765.647,3.366,1.314,4.803,1.998,1.438.682,2.67,1.033,3.696,1.05l4.613.653c.943-.528,2-.861,3.169-.998,1.171-.138,2.341-.274,3.51-.411,1.171-.138,2.317-.333,3.441-.586,1.126-.256,2.209-.802,3.249-1.64,1.969-.436,3.942-1.201,5.922-2.296,1.979-1.096,3.913-2.442,5.808-4.045.66-.456,1.467-1.201,2.417-2.234.949-1.034,1.761-2.091,2.433-3.168,1.323-1.065,2.629-2.328,3.912-3.782,1.285-1.457,2.216-2.763,2.795-3.919.944-.762,1.918-1.717,2.917-2.867.999-1.149,1.859-2.359,2.579-3.631.721-1.27,1.324-2.562,1.812-3.874.487-1.314.741-2.553.76-3.718l.031-1.979.04-2.563c.198-.772.396-1.509.595-2.205.196-.618.346-1.219.449-1.8.101-.581.156-1.063.163-1.453.008-.543-.174-.953-.542-1.232-.369-.277-.545-.959-.527-2.048l.015-.932c-.277-.238-.507-.513-.688-.827-.364-.626-.542-1.134-.536-1.523l.015-.931c.022-1.398-.282-2.898-.91-4.502-.629-1.602-1.445-3.169-2.448-4.699-1.005-1.53-2.22-2.948-3.646-4.254-1.429-1.304-2.883-2.395-4.362-3.272-.738-.632-1.227-.795-1.463-.488-.239.308-.687.455-1.339.444l-1.12-.018-3.082-.049-2.396.895c-.749-.012-1.632-.276-2.65-.799-1.021-.52-1.521-1.324-1.503-2.413.004-.232.574-.923,1.714-2.07,1.139-1.147,2.441-2.389,3.912-3.725,1.468-1.336,2.865-2.596,4.192-3.78,1.325-1.184,2.133-1.928,2.418-2.235.756-.608,1.721-1.137,2.896-1.584,1.174-.448,2.415-.662,3.724-.641,1.962.03,3.399.577,4.317,1.64.917,1.063,2.064,2.421,3.439,4.075,1.271,2.274,2.315,4.271,3.128,5.992.814,1.722,1.534,3.403,2.163,5.045.26,1.325.568,2.438.929,3.336.357.899.694,1.74,1.011,2.521.314.782.536,1.563.664,2.341.128.778.089,1.749-.116,2.911-.196.542-.183,1.162.041,1.865.221.703.539,1.369.949,1.996.41.63.893,1.161,1.446,1.596.554.436,1.017.656,1.391.662.561.009,1.15-.486,1.775-1.486.622-.998,1.224-2.137,1.805-3.409.581-1.273,1.113-2.546,1.602-3.82.486-1.273.876-2.218,1.166-2.837.76-.842,1.427-1.627,1.998-2.357.572-.729,1.144-1.419,1.715-2.071.57-.648,1.211-1.3,1.922-1.95.711-.647,1.633-1.391,2.768-2.229.76-.841,1.311-1.765,1.654-2.771.343-1.003.709-2.008,1.099-3.012.201-.93.496-1.856.885-2.783.387-.926.913-1.694,1.577-2.306.765-1.152,1.528-2.189,2.291-3.11.761-.92,1.843-1.369,3.244-1.347,1.867.029,3.236.517,4.11,1.462.872.947,1.3,2.003,1.281,3.167l-1.804,7.779-.029,1.864c-.013.855-.121,1.728-.321,2.617-.202.891-.588,1.721-1.16,2.487-.572.768-1.353,1.396-2.342,1.886-.988.49-2.323.721-4.004.694-.749-.013-1.219.214-1.412.677-.098.231-.146.426-.149.581-1.326,1.067-2.299,2.119-2.922,3.158-.625,1.038-1.153,2.078-1.591,3.121-.437,1.042-.873,2.065-1.309,3.067-.437,1.005-1.036,1.965-1.797,2.885-.568.457-1.115.973-1.636,1.548-.523.574-.794,1.444-.812,2.609-.572.769-1.052,1.498-1.436,2.191-.479.616-.907,1.19-1.288,1.728-.383.538-.669.921-.858,1.151-.39.926-.774,1.64-1.155,2.138-.382.501-.786,1.019-1.216,1.555-.428.537-.882,1.113-1.357,1.728-.479.614-.959,1.499-1.443,2.656-.388.848-.748,1.503-1.082,1.964-.335.462-.622.883-.86,1.27-.24.384-.457.768-.648,1.154-.194.385-.388.848-.582,1.39l-1.162,2.545c-.478.613-.812,1.095-1.003,1.441-.194.347-.81.938-1.85,1.776-1.046,1.071-1.973,2.067-2.779,2.986-.809.919-1.216,1.612-1.224,2.078-1.544,3.083-4.305,6.418-8.284,10.009-1.806,1.913-3.445,3.713-4.92,5.398-1.476,1.686-2.871,2.829-4.188,3.432-6.589,3.158-11.825,6.456-15.708,9.89-.655.146-1.619.479-2.889,1.004-1.27.522-2.562,1.085-3.88,1.688ZM656.013,912.511c-1.74,1.058-9.521.761-10.781-.749-.685-.821-.645-3.537-1.486-5.003-2.678-4.666-6.057-8.642-11.264-10.503-8.523,6.926,2.866,24.283-12.107,25.706-8.6.817-41.04-8.041-45.053-15.758-4.529-8.709,8.781-3.867,13.973-5.409,2.24-.665,5.646-6.054,8.35-7.65,9.753-5.756,33.523-7.265,44.714-6.002,7.179.811,13.272,1.019,16.485,8.514,1.827,4.263,1.208,14.399-2.83,16.854ZM636.885,424.88c-2.854,1.652-9.265-5.83-7.137-10.621.701-1.577,6.675-8.795,8.282-10.729,23.729-28.556,45.919-46.078,81.751-57.249,25.134-7.836,52.937-13.536,79.214-12.276l-1.665,2.825c-27.662,2.107-56.888,9.728-82.315,20.685-32.665,14.075-58.721,37.786-78.13,67.365ZM811.876,375.376c-5.428,43.107-34.991,105.291-74.666,126.334-2.788,1.479-23.121,10.447-24.205,9.285-1.012-6.295,13.824-14.498,10.536-21.001-2.811-5.56-37.335-3.602-36.616-20.472.267-6.26,13.904-23.385,18.56-28.536,6.145-6.798,17.348-14.29,21.949-21.051,3.339-4.906,3.948-11.699,9.048-15.952,8.475-7.067,26.373-7.128,36.514-11.998,1.946-2.027-5.324-3.895-6.472-4.015-15.347-1.601-31.86,3.917-47.528,2.025-.916-4.47,4.283-7.666,7.68-9.818,21.693-13.74,44.105-11.843,66.538-18.462,4.188-1.236,15.68-10.557,18.541-7.497,2.394,2.56.636,17.052.119,21.158Z"/>
</svg>